<svg width="24" height="24" viewBox="0 0 24 24" fill="none" xmlns="http://www.w3.org/2000/svg">
<path fill-rule="evenodd" clip-rule="evenodd" d="M20 13.0959C20.55 13.0959 21 12.6459 21 12.0959C21 11.5459 20.55 11.0959 20 11.0959H19V5H20C20.55 5 21 4.54999 21 4C21 3.45001 20.55 3 20 3H4C3.45 3 3 3.45001 3 4C3 4.54999 3.45 5 4 5H5V11.0959H4C3.45 11.0959 3 11.5459 3 12.0959C3 12.6459 3.45 13.0959 4 13.0959H5V19H4C3.45 19 3 19.45 3 20C3 20.55 3.45 21 4 21H20C20.55 21 21 20.55 21 20C21 19.45 20.55 19 20 19H19V13.0959H20ZM17 19V5H7V19H17Z" fill="#334355"/>
<path d="M8 11V18H16V11C16 11 15.5523 11.5 15 11.5C14.4477 11.5 14.5523 11 14 11C13.4477 11 13.5523 11.5 13 11.5C12.4477 11.5 12.5523 11 12 11C11.4477 11 11.5523 11.5 11 11.5C10.4477 11.5 10.5523 11 10 11C9.44771 11 9.55229 11.5 9 11.5C8.44771 11.5 8 11 8 11Z" fill="#FFC524"/>
</svg>
