<svg width="24" height="24" viewBox="0 0 24 24" fill="none" xmlns="http://www.w3.org/2000/svg">
<g clip-path="url(#clip0_207_1063)">
<path d="M2 20H6V22H2C1.46957 22 0.96101 21.7891 0.585938 21.4141C0.210865 21.039 0 20.5304 0 20V16H2V20ZM24 20C24 20.5304 23.7891 21.039 23.4141 21.4141C23.039 21.7891 22.5304 22 22 22H18V20H22V16H24V20ZM6 18H4V6H6V18ZM8 18H7V6H8V18ZM12 10C10.9099 10.0055 10.0001 10.9186 10 12.0098C10 13.101 10.9099 13.9936 12 13.999V18H9V6H12V10ZM14 18H13V13.7334C13.1508 13.6468 13.2919 13.5421 13.417 13.417C13.7902 13.0438 14 12.5376 14 12.0098C13.9999 11.2754 13.5959 10.6231 13 10.2725V6H14V18ZM18 18H16V6H18V18ZM20 18H19V6H20V18ZM6 4H2V8H0V4C0 3.46957 0.210865 2.96101 0.585938 2.58594C0.96101 2.21086 1.46957 2 2 2H6V4ZM22 2C22.5304 2 23.039 2.21086 23.4141 2.58594C23.7891 2.96101 24 3.46957 24 4V8H22V4H18V2H22Z" fill="white"/>
<path d="M13.05 2H11.04V5.03H13.05V2Z" fill="#FF4848"/>
<path d="M3.03 11.04H0V13.05H3.03V11.04Z" fill="#FF4848"/>
<path d="M11.04 22.08H13.05V19.06H11.04V22.08Z" fill="#FF4848"/>
<path d="M24.08 13.05V11.04H21.06V13.05H24.08Z" fill="#FF4848"/>
<path d="M13.05 12.05C13.05 12.3152 12.9446 12.5696 12.7571 12.7571C12.5696 12.9446 12.3152 13.05 12.05 13.05C11.5 13.05 11.04 12.6 11.04 12.05C11.04 11.5 11.5 11.04 12.05 11.04C12.6 11.04 13.05 11.5 13.05 12.05Z" fill="#FF4848"/>
</g>
<defs>
<clipPath id="clip0_207_1063">
<rect width="24" height="24" fill="white"/>
</clipPath>
</defs>
</svg>
