<svg width="22" height="19" viewBox="0 0 22 19" fill="none" xmlns="http://www.w3.org/2000/svg">
<path d="M10.83 6L14 9.16003C14 9.11005 14 9.04999 14 9C14 8.20435 13.6839 7.44128 13.1213 6.87866C12.5587 6.31604 11.7956 6 11 6C10.94 6 10.89 6 10.83 6ZM6.52999 6.80005L8.07998 8.34998C8.02999 8.56 7.99999 8.77002 7.99999 9C7.99999 9.79565 8.31606 10.5587 8.87868 11.1213C9.44131 11.684 10.2043 12 11 12C11.22 12 11.44 11.97 11.65 11.92L13.2 13.47C12.53 13.8 11.79 14 11 14C9.67391 14 8.40215 13.4732 7.46447 12.5355C6.52679 11.5978 5.99999 10.3261 5.99999 9C5.99999 8.21002 6.2 7.47003 6.52999 6.80005ZM1 1.27002L3.73 4C2.08001 5.29999 0.779999 7 0 9C1.73001 13.39 5.99999 16.5 11 16.5C12.55 16.5 14.03 16.2 15.38 15.66L15.81 16.08L18.73 19L20 17.73L2.26998 0M11 4C12.3261 4 13.5978 4.52679 14.5355 5.46448C15.4732 6.40216 16 7.67389 16 9C16 9.64001 15.87 10.2599 15.64 10.8199L18.57 13.75C20.07 12.5 21.27 10.86 22 9C20.27 4.60999 16 1.5 11 1.5C9.6 1.5 8.26 1.74994 6.99999 2.19995L9.17001 4.34998C9.74001 4.13 10.35 4 11 4Z" fill="#D2D2D2"/>
</svg>
