<svg width="24" height="24" viewBox="0 0 24 24" fill="none" xmlns="http://www.w3.org/2000/svg">
<path d="M14.4 0L0 2.66663V21.3333L14.4 24V21.3333H22.8C23.4624 21.3333 24 20.736 24 20V4C24 3.26398 23.4624 2.66663 22.8 2.66663H14.4V0ZM12 3.14844V20.8516L2.4 19.0755V4.92444L12 3.14844ZM14.4 5.33331H16.8V8H14.4V5.33331ZM19.2 5.33331H21.6V8H19.2V5.33331ZM3.81094 7.0625L6.07265 11.9922L3.6 16.9375H5.68359L7.03125 13.7448C7.12125 13.4394 7.18172 13.2119 7.21172 13.0599H7.23047C7.27967 13.3772 7.33945 13.6028 7.38985 13.7161L8.72578 16.9349H10.8L8.40703 11.9557L10.732 7.0625H8.78672L7.55156 9.99219C7.43156 10.3722 7.35096 10.6648 7.31016 10.8541H7.27969C7.21008 10.5368 7.14114 10.257 7.05235 10.0156L5.94375 7.0625H3.81094ZM14.4 10.6666H16.8V13.3333H14.4V10.6666ZM19.2 10.6666H21.6V13.3333H19.2V10.6666ZM14.4 16H16.8V18.6666H14.4V16ZM19.2 16H21.6V18.6666H19.2V16Z" fill="#FFC524"/>
</svg>
